<?xml version="1.0" encoding="UTF-8" standalone="no"?>
<!DOCTYPE svg PUBLIC "-//W3C//DTD SVG 1.1//EN" "http://www.w3.org/Graphics/SVG/1.1/DTD/svg11.dtd">
<svg width="100%" height="100%" viewBox="0 0 268 268" version="1.1" xmlns="http://www.w3.org/2000/svg" xmlns:xlink="http://www.w3.org/1999/xlink" xml:space="preserve" xmlns:serif="http://www.serif.com/" style="fill-rule:evenodd;clip-rule:evenodd;stroke-linecap:round;stroke-miterlimit:1.5;">
    <rect id="Navy--web-" serif:id="Navy (web)" x="0" y="0" width="268" height="268" style="fill:rgb(19,35,76);"/>
    <g id="Text--original-" serif:id="Text (original)">
        <path d="M88.373,170.859C81.182,170.859 74.701,169.269 68.928,166.089C63.155,162.908 58.627,158.501 55.343,152.866C52.059,147.232 50.417,140.923 50.417,133.941C50.417,126.958 52.059,120.649 55.343,115.015C58.627,109.38 63.173,104.973 68.98,101.793C74.787,98.612 81.286,97.022 88.476,97.022C93.869,97.022 98.847,97.921 103.409,99.719C107.972,101.516 111.844,104.143 115.024,107.6L110.15,112.474C104.481,106.736 97.326,103.867 88.684,103.867C82.945,103.867 77.726,105.18 73.024,107.807C68.323,110.435 64.642,114.03 61.98,118.593C59.318,123.155 57.988,128.272 57.988,133.941C57.988,139.61 59.318,144.726 61.98,149.289C64.642,153.852 68.323,157.447 73.024,160.074C77.726,162.701 82.945,164.014 88.684,164.014C97.395,164.014 104.55,161.111 110.15,155.303L115.024,160.177C111.844,163.634 107.955,166.279 103.358,168.111C98.76,169.943 93.765,170.859 88.373,170.859Z" style="fill:white;fill-rule:nonzero;"/>
        <path d="M217.483,97.645L217.483,170.237L210.12,170.237L210.12,112.163L181.602,161.007L177.972,161.007L149.454,112.474L149.454,170.237L142.091,170.237L142.091,97.645L148.417,97.645L179.942,151.466L211.157,97.645L217.483,97.645Z" style="fill:white;fill-rule:nonzero;"/>
    </g>
    <g id="Border">
        <rect x="24.143" y="25.473" width="218.9" height="218.886" style="fill:none;stroke:rgb(255,77,0);stroke-width:16px;"/>
    </g>
</svg>
